<?xml version="1.0" standalone="no"?><!DOCTYPE svg PUBLIC "-//W3C//DTD SVG 1.1//EN" "http://www.w3.org/Graphics/SVG/1.1/DTD/svg11.dtd"><svg t="1765110986891" class="icon" viewBox="0 0 1024 1024" version="1.1" xmlns="http://www.w3.org/2000/svg" p-id="6124" xmlns:xlink="http://www.w3.org/1999/xlink" width="200" height="200"><path d="M485.12 290.987c-55.751 5.973-102.542 29.867-140.373 71.68S288 454.258 288 512s18.916 107.52 56.747 149.333 84.622 65.707 140.373 71.68V960h53.76V733.013c55.751-5.973 102.542-29.867 140.373-71.68S736 569.742 736 512s-18.916-107.52-56.747-149.333-84.622-65.707-140.373-71.68V64h-53.76v226.987zM512 658.347c-39.822 0-74.169-14.436-103.04-43.307-28.871-28.871-43.307-63.218-43.307-103.04s14.436-74.169 43.307-103.04 63.218-43.307 103.04-43.307 74.169 14.436 103.04 43.307 43.307 63.218 43.307 103.04-14.436 74.169-43.307 103.04c-28.871 28.871-63.218 43.307-103.04 43.307z" p-id="6125" fill="#ffffff"></path></svg>