<?xml version="1.0" standalone="no"?><!DOCTYPE svg PUBLIC "-//W3C//DTD SVG 1.1//EN" "http://www.w3.org/Graphics/SVG/1.1/DTD/svg11.dtd"><svg t="1765111230797" class="icon" viewBox="0 0 1024 1024" version="1.1" xmlns="http://www.w3.org/2000/svg" p-id="9479" xmlns:xlink="http://www.w3.org/1999/xlink" width="200" height="200"><path d="M721.165653 144.1792c26.624 0 50.107733 17.339733 57.9584 42.8032l67.652267 238.455467h116.9408c33.450667 0 60.6208 8.669867 60.6208 42.120533s-27.101867 37.0688-60.6208 37.0688H846.77632l-67.652267 243.575467a60.6208 60.6208 0 0 1-57.9584 42.8032H599.855787c-33.450667 0-60.6208-9.352533-60.6208-42.8032 0-33.518933 27.170133-38.775467 60.6208-38.775467h111.4112l62.190933-241.8688-62.190933-243.370667H599.855787c-33.109333 0-60.074667-4.164267-60.6208-37.205333-0.546133-33.041067 27.170133-42.8032 60.6208-42.8032h121.309866z" p-id="9480" fill="#2c2c2c"></path><path d="M269.64992 0a34.133333 34.133333 0 0 1 34.133333 34.133333v172.373334a273.066667 273.066667 0 0 1 0 542.72V948.906667a34.133333 34.133333 0 1 1-68.266666 0v-200.567467a273.066667 273.066667 0 0 1 0-540.945067V34.133333a34.133333 34.133333 0 0 1 34.133333-34.133333z m3.8912 279.688533a198.382933 198.382933 0 1 0 0 396.765867 198.382933 198.382933 0 0 0 0-396.765867z" p-id="9481" fill="#2c2c2c"></path></svg>