<?xml version="1.0" standalone="no"?><!DOCTYPE svg PUBLIC "-//W3C//DTD SVG 1.1//EN" "http://www.w3.org/Graphics/SVG/1.1/DTD/svg11.dtd"><svg t="1764853036069" class="icon" viewBox="0 0 1024 1024" version="1.1" xmlns="http://www.w3.org/2000/svg" p-id="21699" xmlns:xlink="http://www.w3.org/1999/xlink" width="200" height="200"><path d="M213.333333 256a42.666667 42.666667 0 1 1 85.333334 0 42.666667 42.666667 0 0 1-85.333334 0z m42.666667-128a128 128 0 0 0-42.666667 248.746667v270.506666a128.042667 128.042667 0 1 0 85.333334 0V376.746667A128.042667 128.042667 0 0 0 256 128zM213.333333 768a42.666667 42.666667 0 1 1 85.333334 0 42.666667 42.666667 0 0 1-85.333334 0z m554.666667-42.666667a42.666667 42.666667 0 1 0 0 85.333334 42.666667 42.666667 0 0 0 0-85.333334z m-128 42.666667a128 128 0 1 1 256 0 128 128 0 0 1-256 0z m128-448a64 64 0 1 0 0-128 64 64 0 0 0 0 128z m64 170.666667a64 64 0 1 1-128 0 64 64 0 0 1 128 0z" fill="#ffffff" p-id="21700"></path></svg>