<?xml version="1.0" standalone="no"?><!DOCTYPE svg PUBLIC "-//W3C//DTD SVG 1.1//EN" "http://www.w3.org/Graphics/SVG/1.1/DTD/svg11.dtd"><svg t="1764853030381" class="icon" viewBox="0 0 1024 1024" version="1.1" xmlns="http://www.w3.org/2000/svg" p-id="21468" xmlns:xlink="http://www.w3.org/1999/xlink" width="200" height="200"><path d="M256 213.333333a42.666667 42.666667 0 1 0 0 85.333334 42.666667 42.666667 0 0 0 0-85.333334zM128 256a128 128 0 1 1 170.666667 120.746667v270.506666a128.042667 128.042667 0 1 1-85.333334 0V376.746667A128.042667 128.042667 0 0 1 128 256z m524.501333-115.498667a42.666667 42.666667 0 0 1 60.330667 0L768 195.669333l55.168-55.168a42.666667 42.666667 0 1 1 60.330667 60.330667L828.330667 256l55.168 55.168a42.666667 42.666667 0 0 1-60.330667 60.330667L768 316.330667l-55.168 55.168a42.666667 42.666667 0 1 1-60.330667-60.330667L707.669333 256l-55.168-55.168a42.666667 42.666667 0 0 1 0-60.330667zM768 426.666667a42.666667 42.666667 0 0 1 42.666667 42.666666v177.92a128.042667 128.042667 0 1 1-85.333334 0V469.333333a42.666667 42.666667 0 0 1 42.666667-42.666666zM256 725.333333a42.666667 42.666667 0 1 0 0 85.333334 42.666667 42.666667 0 0 0 0-85.333334z m512 0a42.666667 42.666667 0 1 0 0 85.333334 42.666667 42.666667 0 0 0 0-85.333334z" fill="#ffffff" p-id="21469"></path></svg>