<?xml version="1.0" standalone="no"?><!DOCTYPE svg PUBLIC "-//W3C//DTD SVG 1.1//EN" "http://www.w3.org/Graphics/SVG/1.1/DTD/svg11.dtd"><svg t="1764853021850" class="icon" viewBox="0 0 1024 1024" version="1.1" xmlns="http://www.w3.org/2000/svg" p-id="21243" xmlns:xlink="http://www.w3.org/1999/xlink" width="200" height="200"><path d="M256 213.333333a42.666667 42.666667 0 1 0 0 85.333334 42.666667 42.666667 0 0 0 0-85.333334zM128 256a128 128 0 1 1 170.666667 120.746667V384a85.333333 85.333333 0 0 0 85.333333 85.333333h256a85.333333 85.333333 0 0 0 85.333333-85.333333v-7.253333a128.042667 128.042667 0 1 1 85.333334 0V384a170.666667 170.666667 0 0 1-170.666667 170.666667h-85.333333v92.586666a128.042667 128.042667 0 1 1-85.333334 0V554.666667H384a170.666667 170.666667 0 0 1-170.666667-170.666667v-7.253333A128.042667 128.042667 0 0 1 128 256z m640-42.666667a42.666667 42.666667 0 1 0 0 85.333334 42.666667 42.666667 0 0 0 0-85.333334z m-256 512a42.666667 42.666667 0 1 0 0 85.333334 42.666667 42.666667 0 0 0 0-85.333334z" fill="#ffffff" p-id="21244"></path></svg>