<?xml version="1.0" standalone="no"?><!DOCTYPE svg PUBLIC "-//W3C//DTD SVG 1.1//EN" "http://www.w3.org/Graphics/SVG/1.1/DTD/svg11.dtd"><svg t="1765111036750" class="icon" viewBox="0 0 1024 1024" version="1.1" xmlns="http://www.w3.org/2000/svg" p-id="7438" xmlns:xlink="http://www.w3.org/1999/xlink" width="200" height="200"><path d="M367.397 296.72c17.002-23.378 25.504-51.007 25.504-82.887 0-19.128-3.719-38.255-11.158-57.383s-18.065-35.599-31.879-49.413-30.285-24.441-49.413-31.879C281.322 67.719 262.195 64 243.067 64c-31.879 0-60.04 8.501-84.481 25.504s-42.506 39.318-54.195 66.947-14.877 56.32-9.564 86.075 18.596 55.258 39.849 76.511 46.757 35.067 76.511 41.443v302.855c-29.754 6.376-55.258 20.19-76.511 41.443s-34.536 46.757-39.849 76.511c-5.313 29.754-2.125 58.446 9.564 86.074s29.754 49.944 54.195 66.947c24.441 17.002 52.601 25.504 84.481 25.504 19.128 0 38.255-3.719 57.383-11.158s35.599-18.596 49.413-33.473c13.814-14.877 24.441-31.348 31.879-49.413 7.439-18.065 11.158-37.724 11.158-58.977 0-29.754-8.501-57.383-25.504-82.887-17.002-25.504-39.318-43.569-66.947-54.195-8.501-4.251-17.002-7.439-25.504-9.564V360.479l25.504-6.376c27.63-12.752 49.945-31.879 66.948-57.383z m-44.631 471.816c8.501 14.877 12.22 30.285 11.158 46.225-1.063 15.94-6.376 31.348-15.94 46.225s-22.847 25.504-39.849 31.879c-17.002 6.376-34.005 7.97-51.007 4.782-17.002-3.188-32.411-11.158-46.225-23.91s-22.316-28.16-25.504-46.225c-3.188-18.065-1.063-35.067 6.376-51.007 7.439-15.94 18.596-29.223 33.473-39.849s30.817-15.94 47.819-15.94c17.002 0 32.411 4.251 46.225 12.752 13.815 8.502 24.972 20.191 33.474 35.068z m-127.518-481.38c-14.877-10.626-26.035-24.441-33.473-41.443s-9.564-34.005-6.376-51.007 11.158-31.879 23.91-44.631c12.752-12.752 28.16-21.253 46.225-25.504 18.065-4.251 35.599-2.657 52.601 4.782s30.285 18.065 39.849 31.879c9.564 13.814 14.877 29.223 15.94 46.225s-2.657 32.942-11.158 47.819c-8.501 14.877-19.659 26.566-33.473 35.067s-29.223 12.752-46.225 12.752c-17.003 0.001-32.943-5.312-47.82-15.939z m615.273 162.585h-57.383v213.592c-21.253 4.251-39.318 11.689-54.195 22.316-25.504 17.002-44.1 39.318-55.789 66.947s-14.346 56.32-7.97 86.075c6.376 29.754 20.19 55.258 41.443 76.511s46.757 35.067 76.511 41.443c29.754 6.376 58.446 3.719 86.075-7.97 27.629-11.689 49.944-30.285 66.947-55.789 17.002-25.504 25.504-53.132 25.504-82.887 0-40.381-14.877-75.448-44.631-105.202-21.253-21.253-46.757-35.067-76.511-41.443V449.741z m35.068 423.997c-14.877 14.877-32.942 23.378-54.195 25.504-21.253 2.125-40.381-2.657-57.383-14.346-17.002-11.689-28.691-25.504-35.067-41.443-6.376-15.94-7.97-32.942-4.782-51.007 3.188-18.065 11.158-33.473 23.91-46.225 12.752-12.752 28.16-20.722 46.225-23.91 18.065-3.188 35.599-1.594 52.601 4.782 17.002 6.376 30.817 18.065 41.443 35.067s14.877 36.13 12.752 57.383c-2.126 21.253-10.627 39.318-25.504 54.195zM631.996 105.443L673.44 64l98.826 98.826L874.28 64l41.443 41.443-98.826 102.014 98.826 98.826-41.443 44.631-102.014-102.013-98.826 102.014-41.443-44.631 98.826-98.826-98.827-102.015z" p-id="7439" fill="#ffffff"></path></svg>