<?xml version="1.0" standalone="no"?><!DOCTYPE svg PUBLIC "-//W3C//DTD SVG 1.1//EN" "http://www.w3.org/Graphics/SVG/1.1/DTD/svg11.dtd"><svg t="1765111677251" class="icon" viewBox="0 0 1024 1024" version="1.1" xmlns="http://www.w3.org/2000/svg" p-id="17388" xmlns:xlink="http://www.w3.org/1999/xlink" width="200" height="200"><path d="M258 320c-70.6 0-128-57.4-128-128s57.4-128 128-128 128 57.4 128 128-57.4 128-128 128z m0-192c-35.2 0-64 28.8-64 64s28.8 64 64 64 64-28.8 64-64-28.8-64-64-64zM258 960c-70.6 0-128-57.4-128-128s57.4-128 128-128 128 57.4 128 128-57.4 128-128 128z m0-192c-35.2 0-64 28.8-64 64s28.8 64 64 64 64-28.8 64-64-28.8-64-64-64z" p-id="17389" fill="#2c2c2c"></path><path d="M258 768c-17.6 0-32-14.4-32-32V288c0-17.6 14.4-32 32-32s32 14.4 32 32v448c0 17.6-14.4 32-32 32zM770 704c-70.6 0-128-57.4-128-128s57.4-128 128-128 128 57.4 128 128-57.4 128-128 128z m0-192c-35.2 0-64 28.8-64 64s28.8 64 64 64 64-28.8 64-64-28.8-64-64-64z" p-id="17390" fill="#2c2c2c"></path><path d="M674 608c-217.2 0-448-112.2-448-320 0-17.6 14.4-32 32-32s32 14.4 32 32c0 96.2 65.6 155.6 120.4 188.6C481.8 519.4 578 544 674 544c17.6 0 32 14.4 32 32s-14.4 32-32 32z" p-id="17391" fill="#2c2c2c"></path></svg>