<?xml version="1.0" standalone="no"?><!DOCTYPE svg PUBLIC "-//W3C//DTD SVG 1.1//EN" "http://www.w3.org/Graphics/SVG/1.1/DTD/svg11.dtd"><svg t="1765111963762" class="icon" viewBox="0 0 1024 1024" version="1.1" xmlns="http://www.w3.org/2000/svg" p-id="4320" xmlns:xlink="http://www.w3.org/1999/xlink" width="200" height="200"><path d="M725.333333 332.8c-64 0-119.466667-51.2-119.466666-119.466667s51.2-119.466667 119.466666-119.466666 119.466667 51.2 119.466667 119.466666-55.466667 119.466667-119.466667 119.466667z m0-170.666667c-29.866667 0-51.2 25.6-51.2 51.2s25.6 51.2 51.2 51.2 51.2-25.6 51.2-51.2-21.333333-51.2-51.2-51.2zM298.666667 332.8C234.666667 332.8 179.2 277.333333 179.2 213.333333S234.666667 93.866667 298.666667 93.866667 418.133333 149.333333 418.133333 213.333333 362.666667 332.8 298.666667 332.8z m0-170.666667c-29.866667 0-51.2 21.333333-51.2 51.2S268.8 264.533333 298.666667 264.533333 349.866667 243.2 349.866667 213.333333 328.533333 162.133333 298.666667 162.133333zM298.666667 930.133333c-64 0-119.466667-51.2-119.466667-119.466666s51.2-119.466667 119.466667-119.466667 119.466667 51.2 119.466666 119.466667-55.466667 119.466667-119.466666 119.466666z m0-170.666666c-29.866667 0-51.2 25.6-51.2 51.2s25.6 51.2 51.2 51.2 51.2-25.6 51.2-51.2-21.333333-51.2-51.2-51.2z" p-id="4321" fill="#2c2c2c"></path><path d="M298.666667 759.466667c-17.066667 0-34.133333-12.8-34.133334-34.133334V298.666667c0-17.066667 12.8-34.133333 34.133334-34.133334s34.133333 17.066667 34.133333 34.133334v426.666666c0 17.066667-17.066667 34.133333-34.133333 34.133334z" p-id="4322" fill="#2c2c2c"></path><path d="M298.666667 759.466667c-17.066667 0-34.133333-12.8-34.133334-34.133334v-42.666666c0-102.4 72.533333-149.333333 110.933334-157.866667l251.733333-85.333333c8.533333-4.266667 64-21.333333 64-98.133334V298.666667c0-17.066667 12.8-34.133333 34.133333-34.133334s34.133333 12.8 34.133334 34.133334v42.666666c0 102.4-72.533333 149.333333-110.933334 157.866667l-251.733333 85.333333c-12.8 4.266667-64 21.333333-64 98.133334v42.666666c0 17.066667-17.066667 34.133333-34.133333 34.133334z" p-id="4323" fill="#2c2c2c"></path></svg>