<?xml version="1.0" standalone="no"?><!DOCTYPE svg PUBLIC "-//W3C//DTD SVG 1.1//EN" "http://www.w3.org/Graphics/SVG/1.1/DTD/svg11.dtd"><svg t="1765111864338" class="icon" viewBox="0 0 1024 1024" version="1.1" xmlns="http://www.w3.org/2000/svg" p-id="23916" xmlns:xlink="http://www.w3.org/1999/xlink" width="200" height="200"><path d="M768 682.666667v-85.333334h42.666667V170.666667H256v428.16c6.954667-0.981333 14.08-1.493333 21.333333-1.493334H341.333333v85.333334H277.333333a64 64 0 0 0 0 128H426.666667v85.333333H277.333333A149.333333 149.333333 0 0 1 128 746.666667V213.333333a128 128 0 0 1 128-128h597.333333a42.666667 42.666667 0 0 1 42.666667 42.666667v725.333333a42.666667 42.666667 0 0 1-42.666667 42.666667h-170.666666v-85.333333h128v-128h-42.666667zM298.666667 213.333333h85.333333v85.333334H298.666667V213.333333z m0 128h85.333333v85.333334H298.666667V341.333333z m298.666666 384v256h-85.333333v-256H384l170.666667-213.333333 170.666666 213.333333h-128z" p-id="23917" fill="#2c2c2c"></path></svg>