<?xml version="1.0" standalone="no"?><!DOCTYPE svg PUBLIC "-//W3C//DTD SVG 1.1//EN" "http://www.w3.org/Graphics/SVG/1.1/DTD/svg11.dtd"><svg t="1765111691729" class="icon" viewBox="0 0 1024 1024" version="1.1" xmlns="http://www.w3.org/2000/svg" p-id="17633" xmlns:xlink="http://www.w3.org/1999/xlink" width="200" height="200"><path d="M258 1001.4c-4.4 0-8.8-0.2-13.2-0.6-4.4-0.4-8.8-1-13-2-4.4-0.8-8.6-2-12.8-3.2-4.2-1.2-8.4-2.8-12.4-4.4-4-1.6-8-3.6-12-5.6-4-2-7.8-4.4-11.4-6.8-3.6-2.4-7.2-5-10.6-7.8-3.4-2.8-6.8-5.8-9.8-9-3-3-6-6.4-8.8-9.8-2.8-3.4-5.4-7-7.8-10.6-2.4-3.6-4.8-7.4-6.8-11.4-2-3.8-4-8-5.6-12-1.6-4-3.2-8.2-4.4-12.4-1.2-4.2-2.4-8.6-3.2-12.8-0.8-4.4-1.6-8.8-2-13.2a145.726 145.726 0 0 1 0-26.4c0.4-4.4 1-8.8 2-13 0.8-4.4 2-8.6 3.2-12.8 1.2-4.2 2.8-8.4 4.4-12.4s3.6-8 5.6-12c2-3.8 4.4-7.6 6.8-11.4 2.4-3.6 5.2-7.2 7.8-10.6 2.8-3.4 5.8-6.8 9-9.8 3.2-3.2 6.4-6.2 9.8-8.8 3.4-2.8 7-5.4 10.6-7.8 3.6-2.4 7.4-4.8 11.4-6.8 3.8-2 8-4 12-5.6 4-1.6 8.2-3.2 12.4-4.4 4.2-1.2 8.6-2.4 12.8-3.2 4.4-0.8 8.8-1.6 13.2-2 8.8-0.8 17.8-0.8 26.4 0 4.4 0.4 8.8 1 13 2 4.4 0.8 8.6 2 12.8 3.2 4.2 1.2 8.4 2.8 12.4 4.4 4 1.6 8 3.6 12 5.6 4 2 7.8 4.4 11.4 6.8 3.6 2.4 7.2 5 10.6 7.8 3.4 2.8 6.8 5.8 9.8 9 3 3 6 6.4 8.8 9.8 2.8 3.4 5.4 7 7.8 10.6 2.4 3.6 4.8 7.6 6.8 11.4 2 3.8 4 8 5.6 12 1.6 4 3.2 8.2 4.4 12.4s2.4 8.6 3.2 12.8c0.8 4.4 1.6 8.8 2 13.2a145.726 145.726 0 0 1 0 26.4c-0.4 4.4-1 8.8-2 13-0.8 4.4-2 8.6-3.2 12.8-1.2 4.2-2.8 8.4-4.4 12.4s-3.6 8-5.6 12c-2 3.8-4.4 7.8-6.8 11.4-2.4 3.6-5.2 7.2-7.8 10.6-2.8 3.4-5.8 6.8-9 9.8-3.2 3.2-6.4 6.2-9.8 8.8-3.4 2.8-7 5.4-10.6 7.8-3.6 2.4-7.4 4.8-11.4 6.8-3.8 2-8 4-12 5.6-4 1.6-8.2 3.2-12.4 4.4-4.2 1.2-8.6 2.4-12.8 3.2-4.4 0.8-8.8 1.6-13.2 2-4.4 0.4-8.8 0.6-13.2 0.6z m0-202.6c-2.2 0-4.4 0.2-6.6 0.4-2.2 0.2-4.4 0.6-6.6 1-2.2 0.4-4.4 1-6.4 1.6-2.2 0.6-4.2 1.4-6.2 2.2-2 0.8-4 1.8-6 2.8-2 1-3.8 2.2-5.6 3.4-1.8 1.2-3.6 2.6-5.4 4-1.6 1.4-3.4 2.8-5 4.4-1.6 1.6-3 3.2-4.4 5-1.4 1.6-2.8 3.4-4 5.4-1.2 1.8-2.4 3.8-3.4 5.6-1 2-2 4-2.8 6-0.8 2-1.6 4.2-2.2 6.2-0.6 2.2-1.2 4.2-1.6 6.4-0.4 2.2-0.8 4.4-1 6.6-0.2 2.2-0.4 4.4-0.4 6.6s0.2 4.4 0.4 6.6c0.2 2.2 0.6 4.4 1 6.6 0.4 2.2 1 4.4 1.6 6.4 0.6 2.2 1.4 4.2 2.2 6.2 0.8 2 1.8 4 2.8 6 1 2 2.2 3.8 3.4 5.6 1.2 1.8 2.6 3.6 4 5.4 1.4 1.6 2.8 3.4 4.4 4.8 1.6 1.6 3.2 3 5 4.4 1.8 1.4 3.4 2.8 5.4 4 1.8 1.2 3.8 2.4 5.6 3.4 2 1 4 2 6 2.8 2 0.8 4.2 1.6 6.2 2.2 2.2 0.6 4.2 1.2 6.4 1.6 2.2 0.4 4.4 0.8 6.6 1 4.4 0.4 8.8 0.4 13.2 0 2.2-0.2 4.4-0.6 6.6-1 2.2-0.4 4.4-1 6.4-1.6 2.2-0.6 4.2-1.4 6.2-2.2 2-0.8 4-1.8 6-2.8 2-1 3.8-2.2 5.6-3.4 1.8-1.2 3.6-2.6 5.4-4 1.6-1.4 3.4-2.8 5-4.4 1.6-1.6 3-3.2 4.4-5 1.4-1.6 2.8-3.4 4-5.4 1.2-1.8 2.4-3.8 3.4-5.6 1-2 2-4 2.8-6 0.8-2 1.6-4.2 2.2-6.2 0.6-2.2 1.2-4.2 1.6-6.4 0.4-2.2 0.8-4.4 1-6.6 0.2-2.2 0.4-4.4 0.4-6.6s-0.2-4.4-0.4-6.6c-0.2-2.2-0.6-4.4-1-6.6-0.4-2.2-1-4.4-1.6-6.4-0.6-2.2-1.4-4.2-2.2-6.2-0.8-2-1.8-4-2.8-6-1-2-2.2-3.8-3.4-5.6-1.2-1.8-2.6-3.6-4-5.4-1.4-1.6-2.8-3.4-4.4-4.8-1.6-1.6-3.2-3-5-4.4-1.8-1.4-3.4-2.8-5.4-4-1.8-1.2-3.8-2.4-5.6-3.4-2-1-4-2-6-2.8-2-0.8-4.2-1.6-6.2-2.2-2.2-0.6-4.2-1.2-6.4-1.6-2.2-0.4-4.4-0.8-6.6-1-2.2-0.2-4.4-0.4-6.6-0.4z" p-id="17634" fill="#ffffff"></path><path d="M258 798.8c-18.6 0-33.8-15.2-33.8-33.8V292.6c0-18.6 15.2-33.8 33.8-33.8s33.8 15.2 33.8 33.8v472.4c0 18.8-15.2 33.8-33.8 33.8z m337.6-438.6c-8.6 0-17.2-3.2-23.8-9.8l-135-135c-13.2-13.2-13.2-34.6 0-47.8l135-135c13.2-13.2 34.6-13.2 47.8 0 13.2 13.2 13.2 34.6 0 47.8l-111.2 111.2 111.2 111.2c13.2 13.2 13.2 34.6 0 47.8-6.8 6.2-15.4 9.6-24 9.6z" p-id="17635" fill="#ffffff"></path><path d="M258 326.4c-4.4 0-8.8-0.2-13.2-0.6-4.4-0.4-8.8-1-13.2-2-4.4-0.8-8.6-2-12.8-3.2-4.2-1.2-8.4-2.8-12.4-4.4-4-1.6-8.2-3.6-12-5.6-3.8-2-7.6-4.4-11.4-6.8-3.6-2.4-7.2-5.2-10.6-7.8-3.4-2.8-6.8-5.8-9.8-8.8-3.2-3.2-6.2-6.4-8.8-9.8-2.8-3.4-5.4-7-7.8-10.6-2.4-3.6-4.8-7.4-6.8-11.4-2-3.8-4-8-5.6-12-1.6-4-3.2-8.2-4.4-12.4-1.2-4.2-2.4-8.6-3.2-12.8-0.8-4.4-1.6-8.8-2-13.2a145.726 145.726 0 0 1 0-26.4c0.4-4.4 1-8.8 2-13.2 0.8-4.4 2-8.6 3.2-12.8 1.2-4.2 2.8-8.4 4.4-12.4 1.6-4 3.6-8.2 5.6-12 2-3.8 4.4-7.6 6.8-11.4 2.4-3.6 5.2-7.2 7.8-10.6 2.8-3.4 5.8-6.8 8.8-9.8 3.2-3.2 6.4-6.2 9.8-8.8 3.4-2.8 7-5.4 10.6-7.8 3.6-2.4 7.4-4.8 11.4-6.8 3.8-2 8-4 12-5.6 4-1.6 8.2-3.2 12.4-4.4 4.2-1.2 8.6-2.4 12.8-3.2 4.4-0.8 8.8-1.6 13.2-2 8.8-0.8 17.8-0.8 26.4 0 4.4 0.4 8.8 1 13.2 2 4.4 0.8 8.6 2 12.8 3.2 4.2 1.2 8.4 2.8 12.4 4.4 4 1.6 8.2 3.6 12 5.6 3.8 2 7.8 4.4 11.4 6.8 3.6 2.4 7.2 5.2 10.6 7.8 3.4 2.8 6.8 5.8 9.8 8.8 3.2 3.2 6.2 6.4 8.8 9.8 2.8 3.4 5.4 7 7.8 10.6 2.4 3.6 4.8 7.4 6.8 11.4 2 3.8 4 8 5.6 12 1.6 4 3.2 8.2 4.4 12.4 1.2 4.2 2.4 8.6 3.2 12.8 0.8 4.4 1.6 8.8 2 13.2a145.726 145.726 0 0 1 0 26.4c-0.4 4.4-1 8.8-2 13.2-0.8 4.4-2 8.6-3.2 12.8-1.2 4.2-2.8 8.4-4.4 12.4-1.6 4-3.6 8.2-5.6 12-2 3.8-4.4 7.6-6.8 11.4-2.4 3.6-5.2 7.2-7.8 10.6-2.8 3.4-5.8 6.8-8.8 9.8-3.2 3.2-6.4 6.2-9.8 8.8-3.4 2.8-7 5.4-10.6 7.8-3.6 2.4-7.4 4.8-11.4 6.8-3.8 2-8 4-12 5.6-4 1.6-8.2 3.2-12.4 4.4-4.2 1.2-8.6 2.4-12.8 3.2-4.4 0.8-8.8 1.6-13.2 2-4.4 0.4-8.8 0.6-13.2 0.6z m0-202.6c-2.2 0-4.4 0.2-6.6 0.4-2.2 0.2-4.4 0.6-6.6 1-2.2 0.4-4.4 1-6.4 1.6-2 0.6-4.2 1.4-6.2 2.2-2 0.8-4 1.8-6 2.8-2 1-3.8 2.2-5.6 3.4-1.8 1.2-3.6 2.6-5.4 4-1.6 1.4-3.4 2.8-5 4.4-1.6 1.6-3 3.2-4.4 5-1.4 1.8-2.8 3.4-4 5.4-1.2 1.8-2.4 3.8-3.4 5.6-1 2-2 4-2.8 6-0.8 2-1.6 4.2-2.2 6.2-0.6 2-1.2 4.2-1.6 6.4-0.4 2.2-0.8 4.4-1 6.6-0.2 2.2-0.4 4.4-0.4 6.6s0.2 4.4 0.4 6.6c0.2 2.2 0.6 4.4 1 6.6 0.4 2.2 1 4.4 1.6 6.4 0.6 2 1.4 4.2 2.2 6.2 0.8 2 1.8 4 2.8 6 1 2 2.2 3.8 3.4 5.6 1.2 1.8 2.6 3.6 4 5.4 1.4 1.6 2.8 3.4 4.4 5 1.6 1.6 3.2 3 5 4.4 1.8 1.4 3.4 2.8 5.4 4 1.8 1.2 3.8 2.4 5.6 3.4 2 1 4 2 6 2.8 2 0.8 4.2 1.6 6.2 2.2 2 0.6 4.2 1.2 6.4 1.6 2.2 0.4 4.4 0.8 6.6 1 4.4 0.4 8.8 0.4 13.2 0 2.2-0.2 4.4-0.6 6.6-1 2.2-0.4 4.4-1 6.4-1.6 2-0.6 4.2-1.4 6.2-2.2 2-0.8 4-1.8 6-2.8 2-1 3.8-2.2 5.6-3.4 1.8-1.2 3.6-2.6 5.4-4 1.6-1.4 3.4-2.8 5-4.4 1.6-1.6 3-3.2 4.4-5 1.4-1.8 2.8-3.4 4-5.4 1.2-1.8 2.4-3.8 3.4-5.6 1-2 2-4 2.8-6 0.8-2 1.6-4.2 2.2-6.2 0.6-2 1.2-4.2 1.6-6.4 0.4-2.2 0.8-4.4 1-6.6 0.2-2.2 0.4-4.4 0.4-6.6s-0.2-4.4-0.4-6.6c-0.2-2.2-0.6-4.4-1-6.6-0.4-2.2-1-4.4-1.6-6.4-0.6-2-1.4-4.2-2.2-6.2-0.8-2-1.8-4-2.8-6-1-2-2.2-3.8-3.4-5.6-1.2-1.8-2.6-3.6-4-5.4-1.4-1.6-2.8-3.4-4.4-5-1.6-1.6-3.2-3-5-4.4-1.8-1.4-3.4-2.8-5.4-4-1.8-1.2-3.8-2.4-5.6-3.4-2-1-4-2-6-2.8-2-0.8-4.2-1.6-6.2-2.2-2-0.6-4.2-1.2-6.4-1.6-2.2-0.4-4.4-0.8-6.6-1-2.2-0.2-4.4-0.4-6.6-0.4zM798 1001.4c-4.4 0-8.8-0.2-13.2-0.6-4.4-0.4-8.8-1-13-2s-8.6-2-12.8-3.2c-4.2-1.2-8.4-2.8-12.4-4.4s-8-3.6-12-5.6c-4-2-7.8-4.4-11.4-6.8-3.6-2.4-7.2-5-10.6-7.8-3.4-2.8-6.8-5.8-9.8-9-3-3-6-6.4-8.8-9.8-2.8-3.4-5.4-7-7.8-10.6-2.4-3.6-4.8-7.4-6.8-11.4-2-3.8-4-8-5.6-12-1.6-4-3.2-8.2-4.4-12.4-1.2-4.2-2.4-8.6-3.2-12.8-0.8-4.4-1.6-8.8-2-13.2a145.726 145.726 0 0 1 0-26.4c0.4-4.4 1-8.8 2-13s2-8.6 3.2-12.8c1.2-4.2 2.8-8.4 4.4-12.4s3.6-8 5.6-12c2-4 4.4-7.8 6.8-11.4 2.4-3.6 5-7.2 7.8-10.6 2.8-3.4 5.8-6.8 9-9.8 3-3 6.4-6 9.8-8.8 3.4-2.8 7-5.4 10.6-7.8 3.6-2.4 7.4-4.8 11.4-6.8 3.8-2 8-4 12-5.6 4-1.6 8.2-3.2 12.4-4.4 4.2-1.2 8.6-2.4 12.8-3.2 4.4-0.8 8.8-1.6 13.2-2 8.8-0.8 17.8-0.8 26.4 0 4.4 0.4 8.8 1 13 2 4.4 0.8 8.6 2 12.8 3.2 4.2 1.2 8.4 2.8 12.4 4.4s8 3.6 12 5.6c4 2 7.8 4.4 11.4 6.8 3.6 2.4 7.2 5 10.6 7.8 3.4 2.8 6.8 5.8 9.8 9 3 3 6 6.4 8.8 9.8 2.8 3.4 5.4 7 7.8 10.6 2.4 3.6 4.8 7.4 6.8 11.4 2 3.8 4 8 5.6 12 1.6 4 3.2 8.2 4.4 12.4 1.2 4.2 2.4 8.6 3.2 12.8 0.8 4.4 1.6 8.8 2 13.2a145.726 145.726 0 0 1 0 26.4c-0.4 4.4-1 8.8-2 13-0.8 4.4-2 8.6-3.2 12.8-1.2 4.2-2.8 8.4-4.4 12.4s-3.6 8-5.6 12c-2 4-4.4 7.8-6.8 11.4-2.4 3.6-5 7.2-7.8 10.6-2.8 3.4-5.8 6.8-9 9.8-3 3-6.4 6-9.8 8.8-3.4 2.8-7 5.4-10.6 7.8-3.6 2.4-7.4 4.8-11.4 6.8-3.8 2-8 4-12 5.6-4 1.6-8.2 3.2-12.4 4.4-4.2 1.2-8.6 2.4-12.8 3.2-4.4 0.8-8.8 1.6-13.2 2-4.4 0.4-8.8 0.6-13.2 0.6z m0-202.6c-2.2 0-4.4 0.2-6.6 0.4-2.2 0.2-4.4 0.6-6.6 1-2.2 0.4-4.4 1-6.4 1.6-2.2 0.6-4.2 1.4-6.2 2.2-2 0.8-4 1.8-6 2.8-2 1-3.8 2.2-5.6 3.4-1.8 1.2-3.6 2.6-5.4 4-1.6 1.4-3.4 2.8-4.8 4.4-1.6 1.6-3 3.2-4.4 5-1.4 1.6-2.8 3.4-4 5.4-1.2 1.8-2.4 3.8-3.4 5.6-1 2-2 4-2.8 6-0.8 2-1.6 4.2-2.2 6.2-0.6 2.2-1.2 4.2-1.6 6.4-0.4 2.2-0.8 4.4-1 6.6-0.2 2.2-0.4 4.4-0.4 6.6s0.2 4.4 0.4 6.6c0.2 2.2 0.6 4.4 1 6.6 0.4 2.2 1 4.4 1.6 6.4 0.6 2.2 1.4 4.2 2.2 6.2 0.8 2 1.8 4 2.8 6 1 2 2.2 3.8 3.4 5.6 1.2 1.8 2.6 3.6 4 5.4 1.4 1.6 2.8 3.4 4.4 4.8 1.6 1.6 3.2 3 5 4.4 1.6 1.4 3.4 2.8 5.4 4 1.8 1.2 3.8 2.4 5.6 3.4 2 1 4 2 6 2.8 2 0.8 4.2 1.6 6.2 2.2 2.2 0.6 4.2 1.2 6.4 1.6 2.2 0.4 4.4 0.8 6.6 1 4.4 0.4 8.8 0.4 13.2 0 2.2-0.2 4.4-0.6 6.6-1 2.2-0.4 4.4-1 6.4-1.6 2.2-0.6 4.2-1.4 6.2-2.2 2-0.8 4-1.8 6-2.8 2-1 3.8-2.2 5.6-3.4 1.8-1.2 3.6-2.6 5.4-4 1.6-1.4 3.4-2.8 4.8-4.4 1.6-1.6 3-3.2 4.4-5 1.4-1.6 2.8-3.4 4-5.4 1.2-1.8 2.4-3.8 3.4-5.6 1-2 2-4 2.8-6 0.8-2 1.6-4.2 2.2-6.2 0.6-2.2 1.2-4.2 1.6-6.4 0.4-2.2 0.8-4.4 1-6.6 0.2-2.2 0.4-4.4 0.4-6.6s-0.2-4.4-0.4-6.6c-0.2-2.2-0.6-4.4-1-6.6-0.4-2.2-1-4.4-1.6-6.4-0.6-2.2-1.4-4.2-2.2-6.2-0.8-2-1.8-4-2.8-6-1-2-2.2-3.8-3.4-5.6-1.2-1.8-2.6-3.6-4-5.4-1.4-1.6-2.8-3.4-4.4-4.8-1.6-1.6-3.2-3-5-4.4-1.6-1.4-3.4-2.8-5.4-4-1.8-1.2-3.8-2.4-5.6-3.4-2-1-4-2-6-2.8-2-0.8-4.2-1.6-6.2-2.2-2.2-0.6-4.2-1.2-6.4-1.6-2.2-0.4-4.4-0.8-6.6-1-2.2-0.2-4.4-0.4-6.6-0.4z" p-id="17636" fill="#ffffff"></path><path d="M798 798.8c-18.6 0-33.8-15.2-33.8-33.8V318c0-3-0.2-6-0.4-9s-0.8-6-1.4-9-1.4-6-2.2-8.8c-0.8-2.8-2-5.8-3-8.6-1.2-2.8-2.4-5.6-3.8-8.2-1.4-2.6-3-5.4-4.6-7.8-1.6-2.6-3.6-5-5.4-7.4a99.956 99.956 0 0 0-13-13c-2.4-2-4.8-3.8-7.4-5.4-2.6-1.6-5.2-3.2-7.8-4.6-2.6-1.4-5.4-2.8-8.2-3.8-2.8-1.2-5.6-2.2-8.6-3s-5.8-1.6-8.8-2.2c-3-0.6-6-1-9-1.4-3-0.2-6-0.4-9-0.4h-177.2c-18.6 0-33.8-15.2-33.8-33.8s15.2-33.8 33.8-33.8h177.2c5.2 0 10.6 0.2 15.8 0.8 5.2 0.6 10.4 1.2 15.6 2.4 5.2 1 10.2 2.4 15.2 3.8 5 1.6 10 3.2 14.8 5.2 4.8 2 9.6 4.2 14.2 6.8 4.6 2.4 9.2 5.2 13.4 8 4.4 2.8 8.6 6 12.6 9.4 4 3.4 8 6.8 11.6 10.6 3.8 3.8 7.2 7.6 10.6 11.6 3.4 4 6.4 8.2 9.4 12.6s5.6 8.8 8 13.4c2.4 4.6 4.8 9.4 6.8 14.2 2 4.8 3.8 9.8 5.4 14.8 1.6 5 2.8 10.2 3.8 15.2 1 5.2 1.8 10.4 2.4 15.6 0.6 5.2 0.8 10.4 0.8 15.8v447.2c-0.2 18.6-15.4 33.6-34 33.6z" p-id="17637" fill="#ffffff"></path></svg>