<?xml version="1.0" standalone="no"?><!DOCTYPE svg PUBLIC "-//W3C//DTD SVG 1.1//EN" "http://www.w3.org/Graphics/SVG/1.1/DTD/svg11.dtd"><svg t="1765110992515" class="icon" viewBox="0 0 1024 1024" version="1.1" xmlns="http://www.w3.org/2000/svg" p-id="6349" xmlns:xlink="http://www.w3.org/1999/xlink" width="200" height="200"><path d="M364.664 781.287c-25.504 0-46.757-9.033-63.759-27.098-17.002-18.065-25.504-39.849-25.504-65.353V360.479c34.005-6.376 62.165-23.378 84.481-51.007 22.316-27.629 33.473-59.508 33.473-95.638 0-19.128-3.188-38.255-9.564-57.383-17.002-38.255-44.631-65.884-82.887-82.887C281.778 67.188 262.65 64 243.522 64c-31.879 0-60.04 8.501-84.481 25.504s-42.506 39.318-54.195 66.947-14.877 56.32-9.564 86.075 18.596 55.258 39.849 76.511 46.757 35.067 76.511 41.443v331.546c0 40.381 14.877 75.448 44.631 105.202s64.822 43.569 105.202 41.443h111.578l-76.511 76.511 41.443 44.631 127.518-127.518v-41.443L437.987 663.333l-38.255 41.443 76.511 76.511H364.664zM195.703 287.156c-14.877-10.626-26.035-24.441-33.473-41.443-7.438-17.002-9.564-34.005-6.376-51.007 3.188-17.002 11.689-32.411 25.504-46.225 13.814-13.814 29.223-22.316 46.225-25.504 17.002-3.188 34.005-1.063 51.007 6.376 17.002 7.439 30.817 19.128 41.443 35.067 10.626 15.94 14.877 34.536 12.752 55.789s-10.626 39.318-25.504 54.195c-14.878 14.877-32.942 23.378-54.195 25.504-21.253 2.125-40.38-2.125-57.383-12.752z m615.273 44.631c2.125-42.506-11.689-78.105-41.443-106.796s-64.822-43.037-105.202-43.037H552.753l76.511-76.511L584.633 64 457.115 191.518v41.443l127.518 127.518 44.631-41.443-76.511-76.511H664.33c23.378 0 44.1 8.501 62.165 25.504 18.065 17.002 27.098 38.255 27.098 63.759v331.545c-19.128 4.251-37.193 11.689-54.195 22.316-25.504 17.002-44.1 39.318-55.789 66.947-11.689 27.629-14.346 56.32-7.97 86.075 6.376 29.754 20.19 55.258 41.443 76.511 21.253 21.253 46.757 35.067 76.511 41.443s58.446 3.719 86.075-7.97c27.629-11.689 49.944-30.285 66.947-55.789 19.128-29.754 27.098-62.165 23.91-97.232-3.188-35.067-17.534-65.353-43.037-90.856-21.253-21.253-46.757-35.067-76.511-41.443V331.787h-0.001z m-19.128 567.454c-19.128 2.125-37.193-2.125-54.195-12.752-17.002-10.626-29.223-24.441-36.661-41.443-7.439-17.002-9.564-34.536-6.376-52.601 3.188-18.065 11.158-33.473 23.91-46.225s28.16-20.722 46.225-23.91c18.065-3.188 35.599-1.594 52.601 4.782s30.285 17.002 39.849 31.879 14.877 29.754 15.94 44.631c1.063 14.877-2.125 29.754-9.564 44.631s-17.534 26.566-30.285 35.067c-12.753 8.502-26.567 13.815-41.444 15.941z" p-id="6350" fill="#2c2c2c"></path></svg>