<?xml version="1.0" standalone="no"?><!DOCTYPE svg PUBLIC "-//W3C//DTD SVG 1.1//EN" "http://www.w3.org/Graphics/SVG/1.1/DTD/svg11.dtd"><svg t="1765111055933" class="icon" viewBox="0 0 1024 1024" version="1.1" xmlns="http://www.w3.org/2000/svg" p-id="7888" xmlns:xlink="http://www.w3.org/1999/xlink" width="200" height="200"><path d="M300.544 347.136l-50.176-50.176L486.912 64h46.592l236.544 232.96-46.592 50.176-179.2-179.2v390.656H476.16V167.936l-175.616 179.2z m46.592 211.456c7.168 38.229 26.283 69.888 57.344 94.976S470.784 691.2 510.208 691.2s74.667-12.544 105.728-37.632c31.061-25.088 51.371-56.747 60.928-94.976h236.544l35.84 32.256v336.896L913.408 960h-806.4l-32.256-32.256V590.848l32.256-32.256h240.128z m376.32 64.512c-19.115 40.619-47.787 73.472-86.016 98.56s-80.64 37.632-127.232 37.632-89.003-12.544-127.232-37.632-66.901-57.941-86.016-98.56H142.848v268.8h738.304v-268.8H723.456z" p-id="7889" fill="#ffffff"></path></svg>