<?xml version="1.0" standalone="no"?><!DOCTYPE svg PUBLIC "-//W3C//DTD SVG 1.1//EN" "http://www.w3.org/Graphics/SVG/1.1/DTD/svg11.dtd"><svg t="1765111656702" class="icon" viewBox="0 0 1024 1024" version="1.1" xmlns="http://www.w3.org/2000/svg" p-id="17143" xmlns:xlink="http://www.w3.org/1999/xlink" width="200" height="200"><path d="M320 320c-70.6 0-128-57.4-128-128s57.4-128 128-128 128 57.4 128 128-57.4 128-128 128z m0-192c-35.2 0-64 28.8-64 64s28.8 64 64 64 64-28.8 64-64-28.8-64-64-64zM320 960c-70.6 0-128-57.4-128-128s57.4-128 128-128 128 57.4 128 128-57.4 128-128 128z m0-192c-35.2 0-64 28.8-64 64s28.8 64 64 64 64-28.8 64-64-28.8-64-64-64z" p-id="17144" fill="#ffffff"></path><path d="M320 768c-17.6 0-32-14.4-32-32V288c0-17.6 14.4-32 32-32s32 14.4 32 32v448c0 17.6-14.4 32-32 32zM704 448c-70.6 0-128-57.4-128-128s57.4-128 128-128 128 57.4 128 128-57.4 128-128 128z m0-192c-35.2 0-64 28.8-64 64s28.8 64 64 64 64-28.8 64-64-28.8-64-64-64z" p-id="17145" fill="#ffffff"></path><path d="M320 768c-17.6 0-32-14.4-32-32 0-60 24.2-105 71.8-133.8 38.8-23.4 88.2-33.6 136-43.6 109.2-22.6 176-41.6 176-142.6 0-17.6 14.4-32 32-32s32 14.4 32 32c0 70-26.4 122.4-78.4 155.8-43 27.6-96.8 38.8-148.8 49.4-100 20.8-156.6 36.4-156.6 114.8 0 17.6-14.4 32-32 32z" p-id="17146" fill="#ffffff"></path></svg>