<?xml version="1.0" standalone="no"?><!DOCTYPE svg PUBLIC "-//W3C//DTD SVG 1.1//EN" "http://www.w3.org/Graphics/SVG/1.1/DTD/svg11.dtd"><svg t="1764853181046" class="icon" viewBox="0 0 1024 1024" version="1.1" xmlns="http://www.w3.org/2000/svg" p-id="22830" xmlns:xlink="http://www.w3.org/1999/xlink" width="200" height="200"><path d="M256 426.666667v426.666666h554.666667V426.666667H256z m512-85.333334h85.333333a42.666667 42.666667 0 0 1 42.666667 42.666667v512a42.666667 42.666667 0 0 1-42.666667 42.666667H170.666667a42.666667 42.666667 0 0 1-42.666667-42.666667V384a42.666667 42.666667 0 0 1 42.666667-42.666667h85.333333V298.666667a256 256 0 1 1 512 0v42.666666z m-85.333333 0V298.666667a170.666667 170.666667 0 0 0-341.333334 0v42.666666h341.333334z m-384 128h85.333333v85.333334H298.666667v-85.333334z m0 128h85.333333v85.333334H298.666667v-85.333334z m0 128h85.333333v85.333334H298.666667v-85.333334z" fill="#2c2c2c" p-id="22831"></path></svg>