<?xml version="1.0" standalone="no"?><!DOCTYPE svg PUBLIC "-//W3C//DTD SVG 1.1//EN" "http://www.w3.org/Graphics/SVG/1.1/DTD/svg11.dtd"><svg t="1765111033053" class="icon" viewBox="0 0 1024 1024" version="1.1" xmlns="http://www.w3.org/2000/svg" p-id="7213" xmlns:xlink="http://www.w3.org/1999/xlink" width="200" height="200"><path d="M274.897 360.541v299.73c8.503 2.126 17.006 5.314 25.509 9.566 27.635 10.629 49.955 28.698 66.961 54.206 17.006 25.509 25.509 53.144 25.509 82.904 0 21.257-3.72 40.921-11.16 58.989s-18.069 34.543-31.886 49.424c-13.817 14.88-30.292 26.04-49.423 33.48-19.132 7.44-38.263 11.16-57.395 11.16-31.886 0-60.052-8.503-84.498-25.509-24.446-17.006-42.515-39.326-54.206-66.961-11.692-27.635-14.88-56.332-9.566-86.093 5.314-29.76 18.6-55.269 39.858-76.527 21.257-21.257 46.766-35.075 76.527-41.452V360.541c-29.76-6.377-55.269-20.195-76.527-41.452-21.257-21.257-34.543-46.766-39.858-76.527-5.314-29.76-2.126-58.458 9.566-86.093s29.76-49.955 54.206-66.961S211.125 64 243.011 64c19.132 0 38.263 3.72 57.395 11.16 19.132 7.44 35.606 18.069 49.423 31.886s24.446 30.292 31.886 49.423 11.16 38.263 11.16 57.395c0 31.886-8.503 60.052-25.509 84.498-17.006 24.446-39.326 43.046-66.961 55.801l-25.508 6.378z m15.943 373.068c-14.88-8.503-30.823-12.754-47.829-12.754s-32.949 5.314-47.829 15.943c-14.88 10.629-26.04 23.915-33.48 39.858s-9.566 32.949-6.377 51.018c3.189 18.069 11.692 33.48 25.509 46.235 13.817 12.754 29.229 20.726 46.235 23.915s34.012 1.594 51.018-4.783c17.006-6.377 30.292-17.006 39.858-31.886 9.566-14.88 14.88-30.292 15.943-46.235 1.063-15.943-2.657-31.355-11.16-46.235-8.505-14.882-19.134-26.573-31.888-35.076z m-47.829-430.463c17.006 0 32.418-4.251 46.235-12.754s24.977-20.195 33.48-35.075c8.503-14.88 12.223-30.823 11.16-47.829-1.063-17.006-6.377-32.418-15.943-46.235-9.566-13.817-22.852-24.446-39.858-31.886-17.006-7.44-34.543-9.034-52.612-4.783-18.069 4.251-33.48 12.754-46.235 25.509-12.754 12.754-20.726 27.635-23.915 44.641s-1.063 34.012 6.377 51.018 18.6 30.823 33.48 41.452c14.882 10.628 30.825 15.942 47.831 15.942z m688.74 506.989c0-40.389-14.349-75.464-43.046-105.224-28.698-29.76-63.772-44.641-105.224-44.641s-76.527 14.88-105.224 44.641c-28.698 29.76-43.046 65.367-43.046 106.819s14.349 76.527 43.046 105.224S742.028 960 783.48 960s76.527-14.349 105.224-43.046 43.047-64.304 43.047-106.819z m-149.865 89.281c-23.383 0-44.109-8.503-62.178-25.509-18.069-17.006-27.103-38.263-27.103-63.772s9.034-46.766 27.103-63.772c18.069-17.006 39.326-25.509 63.772-25.509s45.703 8.503 63.772 25.509c18.069 17.006 27.103 38.263 27.103 63.772s-9.034 46.766-27.103 63.772c-18.068 17.006-39.857 25.509-65.366 25.509z m-57.395-433.651c0-14.88 5.846-28.166 17.537-39.858 11.692-11.692 25.509-17.537 41.452-17.537s29.76 5.846 41.452 17.537 17.537 25.509 17.537 41.452-5.846 29.76-17.537 41.452c-11.692 11.692-25.509 17.537-41.452 17.537s-29.76-5.846-41.452-17.537c-11.691-11.691-17.537-26.04-17.537-43.046z m0-251.9c0-17.006 5.846-31.355 17.537-43.046 11.692-11.692 25.509-17.537 41.452-17.537s29.76 5.846 41.452 17.537c11.692 11.692 17.537 25.509 17.537 41.452s-5.846 29.76-17.537 41.452c-11.692 11.692-25.509 17.537-41.452 17.537s-29.76-5.846-41.452-17.537c-11.691-11.692-17.537-24.978-17.537-39.858z" p-id="7214" fill="#2c2c2c"></path></svg>